<mxfile host="Electron" modified="2023-04-20T18:57:08.968Z" agent="Mozilla/5.0 (Macintosh; Intel Mac OS X 10_15_7) AppleWebKit/537.36 (KHTML, like Gecko) draw.io/21.2.1 Chrome/112.0.5615.87 Electron/24.1.2 Safari/537.36" etag="2RzzMQu6QfgRHDTUjg5W" version="21.2.1" type="device">
  <diagram name="Страница 1" id="LGE76kqkG0PCHXJgvWlx">
    <mxGraphModel dx="558" dy="744" grid="1" gridSize="10" guides="1" tooltips="1" connect="1" arrows="1" fold="1" page="1" pageScale="1" pageWidth="827" pageHeight="1169" math="0" shadow="0">
      <root>
        <mxCell id="0" />
        <mxCell id="1" parent="0" />
        <mxCell id="zVZJgDuVxlE2_nprvElC-13" style="edgeStyle=orthogonalEdgeStyle;rounded=0;orthogonalLoop=1;jettySize=auto;html=1;entryX=0.5;entryY=0;entryDx=0;entryDy=0;fontSize=10;" edge="1" parent="1" source="zVZJgDuVxlE2_nprvElC-6" target="zVZJgDuVxlE2_nprvElC-12">
          <mxGeometry relative="1" as="geometry" />
        </mxCell>
        <mxCell id="zVZJgDuVxlE2_nprvElC-19" style="edgeStyle=orthogonalEdgeStyle;rounded=0;orthogonalLoop=1;jettySize=auto;html=1;entryX=0;entryY=0.5;entryDx=0;entryDy=0;fontSize=10;" edge="1" parent="1" source="zVZJgDuVxlE2_nprvElC-6" target="zVZJgDuVxlE2_nprvElC-4">
          <mxGeometry relative="1" as="geometry">
            <Array as="points">
              <mxPoint x="240" y="450" />
              <mxPoint x="240" y="350" />
            </Array>
          </mxGeometry>
        </mxCell>
        <mxCell id="zVZJgDuVxlE2_nprvElC-6" value="word_analysis(word)&lt;br style=&quot;font-size: 10px;&quot;&gt;&amp;nbsp;== True" style="rhombus;whiteSpace=wrap;html=1;fontSize=10;" vertex="1" parent="1">
          <mxGeometry x="280" y="420" width="200" height="60" as="geometry" />
        </mxCell>
        <mxCell id="zVZJgDuVxlE2_nprvElC-8" style="edgeStyle=orthogonalEdgeStyle;rounded=0;orthogonalLoop=1;jettySize=auto;html=1;entryX=0.5;entryY=0;entryDx=0;entryDy=0;fontSize=10;" edge="1" parent="1" source="zVZJgDuVxlE2_nprvElC-1" target="zVZJgDuVxlE2_nprvElC-2">
          <mxGeometry relative="1" as="geometry" />
        </mxCell>
        <mxCell id="zVZJgDuVxlE2_nprvElC-1" value="Начало" style="rounded=1;whiteSpace=wrap;html=1;arcSize=50;fontSize=10;" vertex="1" parent="1">
          <mxGeometry x="280" y="50" width="200" height="30" as="geometry" />
        </mxCell>
        <mxCell id="zVZJgDuVxlE2_nprvElC-9" style="edgeStyle=orthogonalEdgeStyle;rounded=0;orthogonalLoop=1;jettySize=auto;html=1;entryX=0.5;entryY=0;entryDx=0;entryDy=0;fontSize=10;" edge="1" parent="1" source="zVZJgDuVxlE2_nprvElC-2" target="zVZJgDuVxlE2_nprvElC-3">
          <mxGeometry relative="1" as="geometry" />
        </mxCell>
        <mxCell id="zVZJgDuVxlE2_nprvElC-2" value="Ввод строки в &lt;i style=&quot;font-size: 10px;&quot;&gt;phrase&lt;/i&gt;" style="shape=parallelogram;perimeter=parallelogramPerimeter;whiteSpace=wrap;html=1;fixedSize=1;fontSize=10;" vertex="1" parent="1">
          <mxGeometry x="280" y="120" width="200" height="60" as="geometry" />
        </mxCell>
        <mxCell id="zVZJgDuVxlE2_nprvElC-10" style="edgeStyle=orthogonalEdgeStyle;rounded=0;orthogonalLoop=1;jettySize=auto;html=1;entryX=0.5;entryY=0;entryDx=0;entryDy=0;fontSize=10;" edge="1" parent="1" source="zVZJgDuVxlE2_nprvElC-3" target="zVZJgDuVxlE2_nprvElC-4">
          <mxGeometry relative="1" as="geometry" />
        </mxCell>
        <mxCell id="zVZJgDuVxlE2_nprvElC-3" value="count = 0" style="rounded=0;whiteSpace=wrap;html=1;fontSize=10;" vertex="1" parent="1">
          <mxGeometry x="280" y="220" width="200" height="60" as="geometry" />
        </mxCell>
        <mxCell id="zVZJgDuVxlE2_nprvElC-11" style="edgeStyle=orthogonalEdgeStyle;rounded=0;orthogonalLoop=1;jettySize=auto;html=1;entryX=0.5;entryY=0;entryDx=0;entryDy=0;fontSize=10;" edge="1" parent="1" source="zVZJgDuVxlE2_nprvElC-4" target="zVZJgDuVxlE2_nprvElC-6">
          <mxGeometry relative="1" as="geometry" />
        </mxCell>
        <mxCell id="zVZJgDuVxlE2_nprvElC-16" style="edgeStyle=orthogonalEdgeStyle;rounded=0;orthogonalLoop=1;jettySize=auto;html=1;entryX=0.5;entryY=0;entryDx=0;entryDy=0;exitX=1;exitY=0.5;exitDx=0;exitDy=0;fontSize=10;" edge="1" parent="1" source="zVZJgDuVxlE2_nprvElC-4" target="zVZJgDuVxlE2_nprvElC-15">
          <mxGeometry relative="1" as="geometry">
            <Array as="points">
              <mxPoint x="520" y="350" />
              <mxPoint x="520" y="660" />
              <mxPoint x="380" y="660" />
            </Array>
          </mxGeometry>
        </mxCell>
        <mxCell id="zVZJgDuVxlE2_nprvElC-4" value="Цикл for для элементов массива&lt;br style=&quot;font-size: 10px;&quot;&gt;&lt;i style=&quot;font-size: 10px;&quot;&gt;phrase&lt;/i&gt;" style="shape=hexagon;perimeter=hexagonPerimeter2;whiteSpace=wrap;html=1;fixedSize=1;fontSize=10;" vertex="1" parent="1">
          <mxGeometry x="280" y="320" width="200" height="60" as="geometry" />
        </mxCell>
        <mxCell id="zVZJgDuVxlE2_nprvElC-14" style="edgeStyle=orthogonalEdgeStyle;rounded=0;orthogonalLoop=1;jettySize=auto;html=1;entryX=0;entryY=0.5;entryDx=0;entryDy=0;exitX=0.5;exitY=1;exitDx=0;exitDy=0;fontSize=10;" edge="1" parent="1" source="zVZJgDuVxlE2_nprvElC-12" target="zVZJgDuVxlE2_nprvElC-4">
          <mxGeometry relative="1" as="geometry">
            <Array as="points">
              <mxPoint x="380" y="620" />
              <mxPoint x="240" y="620" />
              <mxPoint x="240" y="350" />
            </Array>
          </mxGeometry>
        </mxCell>
        <mxCell id="zVZJgDuVxlE2_nprvElC-12" value="count += 1" style="rounded=0;whiteSpace=wrap;html=1;fontSize=10;" vertex="1" parent="1">
          <mxGeometry x="280" y="520" width="200" height="60" as="geometry" />
        </mxCell>
        <mxCell id="zVZJgDuVxlE2_nprvElC-18" style="edgeStyle=orthogonalEdgeStyle;rounded=0;orthogonalLoop=1;jettySize=auto;html=1;entryX=0.5;entryY=0;entryDx=0;entryDy=0;fontSize=10;" edge="1" parent="1" source="zVZJgDuVxlE2_nprvElC-15" target="zVZJgDuVxlE2_nprvElC-17">
          <mxGeometry relative="1" as="geometry" />
        </mxCell>
        <mxCell id="zVZJgDuVxlE2_nprvElC-15" value="Вывод &lt;i style=&quot;font-size: 10px;&quot;&gt;count&lt;/i&gt;" style="shape=parallelogram;perimeter=parallelogramPerimeter;whiteSpace=wrap;html=1;fixedSize=1;fontSize=10;" vertex="1" parent="1">
          <mxGeometry x="280" y="700" width="200" height="60" as="geometry" />
        </mxCell>
        <mxCell id="zVZJgDuVxlE2_nprvElC-17" value="Конец" style="rounded=1;whiteSpace=wrap;html=1;arcSize=50;fontSize=10;" vertex="1" parent="1">
          <mxGeometry x="280" y="800" width="200" height="30" as="geometry" />
        </mxCell>
        <mxCell id="zVZJgDuVxlE2_nprvElC-20" value="Нет" style="text;html=1;align=center;verticalAlign=middle;resizable=0;points=[];autosize=1;strokeColor=none;fillColor=none;fontSize=10;" vertex="1" parent="1">
          <mxGeometry x="250" y="418" width="40" height="30" as="geometry" />
        </mxCell>
        <mxCell id="zVZJgDuVxlE2_nprvElC-21" value="Да" style="text;html=1;align=center;verticalAlign=middle;resizable=0;points=[];autosize=1;strokeColor=none;fillColor=none;fontSize=10;" vertex="1" parent="1">
          <mxGeometry x="380" y="478" width="40" height="30" as="geometry" />
        </mxCell>
        <mxCell id="zVZJgDuVxlE2_nprvElC-33" style="edgeStyle=orthogonalEdgeStyle;rounded=0;orthogonalLoop=1;jettySize=auto;html=1;entryX=0.5;entryY=0;entryDx=0;entryDy=0;" edge="1" parent="1" source="zVZJgDuVxlE2_nprvElC-23" target="zVZJgDuVxlE2_nprvElC-32">
          <mxGeometry relative="1" as="geometry" />
        </mxCell>
        <mxCell id="zVZJgDuVxlE2_nprvElC-23" value="answer == True" style="rounded=0;whiteSpace=wrap;html=1;fontSize=10;" vertex="1" parent="1">
          <mxGeometry x="580" y="520" width="200" height="60" as="geometry" />
        </mxCell>
        <mxCell id="zVZJgDuVxlE2_nprvElC-27" style="edgeStyle=orthogonalEdgeStyle;rounded=0;orthogonalLoop=1;jettySize=auto;html=1;entryX=0.5;entryY=0;entryDx=0;entryDy=0;exitX=0;exitY=0.5;exitDx=0;exitDy=0;" edge="1" parent="1" source="zVZJgDuVxlE2_nprvElC-24" target="zVZJgDuVxlE2_nprvElC-23">
          <mxGeometry relative="1" as="geometry">
            <mxPoint x="690" y="450" as="sourcePoint" />
          </mxGeometry>
        </mxCell>
        <mxCell id="zVZJgDuVxlE2_nprvElC-29" style="edgeStyle=orthogonalEdgeStyle;rounded=0;orthogonalLoop=1;jettySize=auto;html=1;entryX=0.5;entryY=0;entryDx=0;entryDy=0;exitX=1;exitY=0.5;exitDx=0;exitDy=0;" edge="1" parent="1" source="zVZJgDuVxlE2_nprvElC-24" target="zVZJgDuVxlE2_nprvElC-28">
          <mxGeometry relative="1" as="geometry">
            <mxPoint x="920" y="510" as="targetPoint" />
          </mxGeometry>
        </mxCell>
        <mxCell id="zVZJgDuVxlE2_nprvElC-24" value="Буквы совпадают?" style="rhombus;whiteSpace=wrap;html=1;fontSize=10;" vertex="1" parent="1">
          <mxGeometry x="700" y="420" width="200" height="60" as="geometry" />
        </mxCell>
        <mxCell id="zVZJgDuVxlE2_nprvElC-26" style="edgeStyle=orthogonalEdgeStyle;rounded=0;orthogonalLoop=1;jettySize=auto;html=1;entryX=0.5;entryY=0;entryDx=0;entryDy=0;fontSize=10;" edge="1" parent="1" source="zVZJgDuVxlE2_nprvElC-25" target="zVZJgDuVxlE2_nprvElC-24">
          <mxGeometry relative="1" as="geometry" />
        </mxCell>
        <mxCell id="zVZJgDuVxlE2_nprvElC-25" value="Вход" style="rounded=1;whiteSpace=wrap;html=1;arcSize=50;fontSize=10;" vertex="1" parent="1">
          <mxGeometry x="700" y="350" width="200" height="30" as="geometry" />
        </mxCell>
        <mxCell id="zVZJgDuVxlE2_nprvElC-34" style="edgeStyle=orthogonalEdgeStyle;rounded=0;orthogonalLoop=1;jettySize=auto;html=1;" edge="1" parent="1" source="zVZJgDuVxlE2_nprvElC-28" target="zVZJgDuVxlE2_nprvElC-32">
          <mxGeometry relative="1" as="geometry" />
        </mxCell>
        <mxCell id="zVZJgDuVxlE2_nprvElC-28" value="answer == True" style="rounded=0;whiteSpace=wrap;html=1;fontSize=10;" vertex="1" parent="1">
          <mxGeometry x="820" y="520" width="200" height="60" as="geometry" />
        </mxCell>
        <mxCell id="zVZJgDuVxlE2_nprvElC-30" value="Нет" style="text;html=1;align=center;verticalAlign=middle;resizable=0;points=[];autosize=1;strokeColor=none;fillColor=none;" vertex="1" parent="1">
          <mxGeometry x="890" y="418" width="40" height="30" as="geometry" />
        </mxCell>
        <mxCell id="zVZJgDuVxlE2_nprvElC-31" value="Да" style="text;html=1;align=center;verticalAlign=middle;resizable=0;points=[];autosize=1;strokeColor=none;fillColor=none;" vertex="1" parent="1">
          <mxGeometry x="660" y="418" width="40" height="30" as="geometry" />
        </mxCell>
        <mxCell id="zVZJgDuVxlE2_nprvElC-32" value="Вызод" style="rounded=1;whiteSpace=wrap;html=1;arcSize=50;fontSize=10;" vertex="1" parent="1">
          <mxGeometry x="700" y="620" width="200" height="30" as="geometry" />
        </mxCell>
        <mxCell id="zVZJgDuVxlE2_nprvElC-36" style="edgeStyle=orthogonalEdgeStyle;rounded=0;orthogonalLoop=1;jettySize=auto;html=1;endArrow=none;endFill=0;" edge="1" parent="1" source="zVZJgDuVxlE2_nprvElC-35">
          <mxGeometry relative="1" as="geometry">
            <mxPoint x="800" y="400" as="targetPoint" />
          </mxGeometry>
        </mxCell>
        <mxCell id="zVZJgDuVxlE2_nprvElC-35" value="Вход - word ( элемент строки)" style="strokeWidth=1;html=1;shape=mxgraph.flowchart.annotation_2;align=left;labelPosition=right;pointerEvents=1;" vertex="1" parent="1">
          <mxGeometry x="1020" y="370" width="50" height="60" as="geometry" />
        </mxCell>
        <mxCell id="zVZJgDuVxlE2_nprvElC-40" style="edgeStyle=orthogonalEdgeStyle;rounded=0;orthogonalLoop=1;jettySize=auto;html=1;entryX=1;entryY=0.5;entryDx=0;entryDy=0;endArrow=none;endFill=0;" edge="1" parent="1" source="zVZJgDuVxlE2_nprvElC-37" target="zVZJgDuVxlE2_nprvElC-32">
          <mxGeometry relative="1" as="geometry" />
        </mxCell>
        <mxCell id="zVZJgDuVxlE2_nprvElC-37" value="Выход answer (True / False)" style="strokeWidth=1;html=1;shape=mxgraph.flowchart.annotation_2;align=left;labelPosition=right;pointerEvents=1;" vertex="1" parent="1">
          <mxGeometry x="1030" y="605" width="50" height="60" as="geometry" />
        </mxCell>
      </root>
    </mxGraphModel>
  </diagram>
</mxfile>
